<svg xmlns="http://www.w3.org/2000/svg" width="900" height="789" viewBox="0 0 900 789">
<rect width="900" height="789" fill="#2b2a33"/>
<path fill="#c9a97a" fill-rule="evenodd" d="M831.8,383.4L829.8,389.0L827.0,394.9L823.2,401.0L818.4,407.2L812.8,413.5L806.3,419.8L799.1,426.0L791.2,432.0L782.6,438.0L773.5,443.6L763.8,449.0L753.6,454.3L742.9,459.4L731.8,464.2L720.1,469.0L707.8,473.6L695.3,479.8L682.3,487.0L668.7,495.6L654.3,506.2L639.7,519.6L625.2,535.3L611.3,552.1L598.4,569.0L587.8,585.4L579.8,600.7L573.5,614.7L569.5,627.8L567.0,640.2L564.3,651.5L561.3,662.1L557.8,671.8L554.2,680.8L550.0,688.9L545.6,696.4L540.8,702.8L535.6,708.3L530.3,713.1L524.4,716.6L518.1,719.2L511.6,721.0L504.7,721.7L497.4,721.4L489.7,720.5L481.6,718.6L473.1,716.0L464.2,712.8L454.9,708.7L445.1,704.0L434.8,698.6L423.8,692.5L411.5,686.8L397.6,682.0L382.4,677.1L366.0,672.4L348.4,668.2L330.3,664.5L312.2,661.5L294.5,659.3L277.7,657.9L261.9,657.2L247.1,656.9L233.3,657.3L220.5,658.7L208.3,659.9L196.8,660.7L185.8,661.2L175.4,661.3L165.6,661.0L156.5,660.3L148.0,659.1L140.1,657.5L133.0,655.7L126.8,653.6L121.4,650.9L116.6,648.2L112.9,644.7L109.7,640.9L107.5,636.5L105.9,631.4L104.7,625.8L104.5,619.5L104.7,612.4L105.5,604.8L107.0,596.7L109.1,588.1L111.9,579.2L115.2,569.9L119.2,560.4L123.8,550.6L128.9,540.5L134.7,530.2L141.1,519.4L147.6,507.6L153.1,493.8L158.3,477.9L162.1,458.7L163.4,435.6L162.1,410.4L160.3,385.0L157.0,361.3L151.2,341.6L144.1,325.6L136.5,312.2L128.8,300.6L120.2,290.7L112.4,281.2L105.2,271.8L98.5,262.5L92.5,253.3L87.0,244.1L82.1,235.1L77.9,226.1L74.4,217.4L71.7,208.8L69.7,200.5L68.5,192.5L67.9,185.0L68.6,178.0L70.1,171.4L72.5,165.3L76.3,160.0L80.7,155.0L86.4,150.9L92.9,147.1L100.2,143.8L108.3,141.2L117.1,138.9L126.5,137.1L136.5,135.9L147.0,135.0L157.9,134.7L169.3,134.8L181.1,135.2L193.5,136.0L206.4,137.1L220.1,137.4L234.5,136.7L249.9,135.7L266.2,134.0L283.3,131.4L301.0,128.0L318.8,123.9L336.2,119.1L352.7,113.9L368.0,108.6L382.1,103.3L394.6,97.6L405.5,91.2L415.7,85.6L425.4,80.6L434.6,76.5L443.3,73.3L451.5,70.6L459.2,69.0L466.5,68.1L473.2,67.9L479.4,68.7L485.3,70.3L490.7,72.7L495.9,75.8L500.6,80.0L505.3,85.0L509.8,90.6L514.0,97.3L518.2,104.7L522.1,113.0L526.0,122.0L529.7,132.0L533.2,143.0L536.9,155.3L543.3,168.0L551.7,181.9L562.4,197.2L575.9,213.6L591.8,230.3L608.7,246.4L625.9,260.7L642.6,272.0L658.3,280.9L672.9,287.8L686.5,293.3L699.5,297.7L712.0,301.0L723.9,304.3L735.3,307.8L746.2,311.4L756.6,315.2L766.5,319.2L775.8,323.5L784.7,327.9L793.0,332.5L800.7,337.3L807.6,342.2L813.9,347.2L819.2,352.2L823.8,357.3L827.4,362.4L830.3,367.3L831.6,372.5L832.1,377.9ZM945.7,404.6L940.9,425.3L933.7,444.5L924.7,462.2L914.3,478.5L902.8,493.2L890.5,506.4L877.6,518.4L864.4,529.2L850.8,539.0L837.2,548.0L823.4,556.2L809.7,563.6L796.1,570.6L782.7,577.1L769.5,583.2L756.9,589.2L744.4,593.6L732.6,597.3L721.8,600.3L712.3,602.6L704.4,604.1L698.5,606.3L695.3,610.4L694.5,616.9L694.6,625.5L694.2,635.9L693.0,647.9L690.0,661.0L685.2,674.7L680.0,689.3L674.0,704.3L667.4,719.7L659.4,735.2L650.4,750.7L639.7,765.7L627.4,780.4L613.6,794.1L598.0,806.4L581.1,817.6L563.0,826.8L543.9,834.0L524.4,839.2L504.9,842.5L485.5,843.7L466.6,843.4L448.3,841.8L430.9,838.8L414.2,835.3L398.4,831.0L383.4,826.7L369.4,822.4L356.7,817.5L345.6,812.0L335.5,807.1L326.3,803.1L317.6,800.2L309.2,798.8L300.4,798.5L291.0,799.3L280.8,800.7L269.5,802.6L257.3,804.6L244.0,806.2L229.9,806.7L214.9,807.0L199.4,807.1L183.3,806.7L166.6,805.6L149.4,803.6L131.7,800.5L113.7,796.1L95.6,790.1L77.4,782.2L59.4,772.3L42.0,760.4L25.8,746.0L10.8,729.9L-2.0,711.7L-12.7,692.4L-20.9,672.3L-26.4,651.6L-30.0,631.2L-31.1,611.1L-30.5,591.7L-28.2,573.0L-24.7,555.0L-20.1,537.9L-14.7,521.6L-8.6,506.0L-2.0,491.1L4.9,476.9L11.9,463.3L18.6,450.4L25.5,438.6L33.3,428.8L40.7,420.7L48.0,415.3L54.8,412.5L59.2,410.9L57.6,409.5L51.8,407.6L44.9,403.5L37.5,396.6L29.6,387.7L21.6,377.3L14.4,365.2L6.8,352.5L-0.9,339.2L-8.4,325.4L-15.7,311.0L-22.4,296.0L-28.5,280.3L-33.8,263.8L-38.1,246.7L-41.2,228.8L-42.8,210.3L-42.7,191.2L-40.4,171.7L-36.2,152.0L-29.6,132.8L-20.6,114.3L-9.8,96.8L3.2,81.1L17.3,66.8L32.7,54.6L48.9,44.4L65.4,35.8L82.1,28.9L98.8,23.4L115.3,19.1L131.6,15.8L147.6,13.4L163.3,11.5L178.5,10.2L193.2,9.1L207.4,8.2L220.9,8.2L233.5,8.9L245.2,9.4L256.0,9.6L265.8,9.2L274.8,8.0L283.2,5.3L291.4,1.2L299.9,-4.0L309.0,-10.4L319.0,-17.5L330.5,-24.4L343.6,-30.6L357.7,-36.9L372.7,-43.2L388.7,-49.1L405.6,-54.4L423.7,-58.5L442.6,-61.5L462.4,-62.8L482.7,-62.1L503.3,-59.5L523.8,-54.6L543.7,-47.5L562.7,-38.3L580.5,-27.6L596.7,-15.2L611.3,-1.7L624.4,12.4L635.8,27.2L646.1,42.0L655.0,56.8L663.0,71.3L670.2,85.1L676.9,97.9L680.7,110.3L683.0,121.3L684.3,130.2L684.8,137.0L686.0,141.4L689.1,143.5L694.4,144.2L701.8,145.2L711.1,146.9L721.9,149.4L733.9,152.5L746.7,156.7L759.8,162.1L773.5,167.7L787.5,173.8L801.7,180.3L816.1,187.5L830.5,195.4L844.9,204.1L859.1,213.8L873.1,224.6L886.7,236.7L899.6,250.1L911.8,265.0L922.8,281.5L932.4,299.6L940.0,319.1L945.2,340.0L948.3,361.6L948.4,383.2Z"/>
<polygon points="118.3,475.0 124.2,461.3 129.0,446.1 131.9,428.9 132.3,410.5 130.5,392.1 126.5,374.8 120.4,359.5 113.2,346.2 105.5,334.1 136.5,312.2 144.1,325.6 151.2,341.6 157.0,361.3 160.3,385.0 162.1,410.4 163.4,435.6 162.1,458.7 158.3,477.9 153.1,493.8" fill="#6a5334" fill-opacity="0.85"/>
<polygon points="696.9,519.0 684.1,525.9 671.1,534.1 658.5,544.1 646.5,555.9 635.6,569.0 626.3,582.9 618.8,597.0 612.9,610.9 608.2,624.4 573.5,614.7 579.8,600.7 587.8,585.4 598.4,569.0 611.3,552.1 625.2,535.3 639.7,519.6 654.3,506.2 668.7,495.6 682.3,487.0" fill="#6a5334" fill-opacity="0.85"/>
<polygon points="583.1,151.2 589.8,164.3 597.7,177.8 607.5,191.4 619.1,204.5 632.0,216.5 645.8,226.9 659.8,235.3 673.6,242.0 687.1,247.6 672.9,287.8 658.3,280.9 642.6,272.0 625.9,260.7 608.7,246.4 591.8,230.3 575.9,213.6 562.4,197.2 551.7,181.9 543.3,168.0" fill="#6a5334" fill-opacity="0.85"/>
<polygon points="574.8,82.8 580.8,94.3 586.3,106.2 591.4,118.4 552.4,134.9 548.3,123.5 544.0,112.9 539.5,103.0" fill="#8fb0be" fill-opacity="0.85"/>
<polygon points="117.2,425.8 118.4,410.6 116.7,395.4 112.3,381.0 142.3,367.8 145.9,388.4 147.7,410.4 148.2,432.4" fill="#8fb0be" fill-opacity="0.85"/>
<polygon points="886.2,324.1 892.2,337.5 896.4,351.6 898.7,366.2 931.9,363.1 929.1,343.8 924.3,325.2 917.2,307.7" fill="#8fb0be" fill-opacity="0.85"/>
<polygon points="96.0,788.8 77.9,781.0 60.1,771.1 42.8,759.3 26.7,745.0 11.8,729.0 111.9,645.5 115.7,649.1 120.6,652.0 126.1,654.8 132.5,657.0 139.7,658.9" fill="#b28f5f" fill-opacity="0.85"/>
<polygon points="850.2,538.0 836.5,546.9 822.8,555.1 809.1,562.5 795.6,569.5 782.1,575.9 732.3,465.3 743.5,460.5 754.2,455.4 764.4,450.1 774.1,444.6 783.3,439.0" fill="#b28f5f" fill-opacity="0.85"/>
<line x1="710.2" y1="479.4" x2="754.5" y2="583.4" stroke="#f2c14e" stroke-width="7" stroke-linecap="round"/>
<line x1="123.4" y1="304.4" x2="26.9" y2="373.5" stroke="#f2c14e" stroke-width="7" stroke-linecap="round"/>
<line x1="809.0" y1="379.1" x2="968.4" y2="408.9" stroke="#ffffff" stroke-width="4" stroke-dasharray="8 6"/>
<line x1="751.9" y1="427.6" x2="835.4" y2="577.6" stroke="#ffffff" stroke-width="1" stroke-opacity="0.30"/>
<line x1="610.6" y1="521.1" x2="713.1" y2="620.5" stroke="#ffffff" stroke-width="1" stroke-opacity="0.30"/>
<line x1="529.9" y1="676.6" x2="670.5" y2="763.0" stroke="#ffffff" stroke-width="1" stroke-opacity="0.30"/>
<line x1="484.6" y1="693.7" x2="463.6" y2="868.4" stroke="#ffffff" stroke-width="1" stroke-opacity="0.30"/>
<line x1="354.6" y1="641.8" x2="311.5" y2="826.7" stroke="#ffffff" stroke-width="1" stroke-opacity="0.30"/>
<line x1="186.3" y1="632.1" x2="182.8" y2="835.8" stroke="#ffffff" stroke-width="1" stroke-opacity="0.30"/>
<line x1="131.5" y1="625.3" x2="-36.7" y2="703.6" stroke="#ffffff" stroke-width="1" stroke-opacity="0.30"/>
<line x1="148.9" y1="562.5" x2="-27.1" y2="479.2" stroke="#ffffff" stroke-width="1" stroke-opacity="0.30"/>
<line x1="178.0" y1="352.1" x2="30.8" y2="416.9" stroke="#ffffff" stroke-width="1" stroke-opacity="0.30"/>
<line x1="104.3" y1="226.0" x2="-50.7" y2="289.3" stroke="#ffffff" stroke-width="1" stroke-opacity="0.30"/>
<line x1="96.1" y1="169.8" x2="-12.3" y2="66.3" stroke="#ffffff" stroke-width="1" stroke-opacity="0.30"/>
<line x1="193.6" y1="161.4" x2="193.2" y2="-16.3" stroke="#ffffff" stroke-width="1" stroke-opacity="0.30"/>
<line x1="379.8" y1="132.4" x2="297.2" y2="-34.2" stroke="#ffffff" stroke-width="1" stroke-opacity="0.30"/>
<line x1="471.3" y1="93.9" x2="484.6" y2="-88.1" stroke="#ffffff" stroke-width="1" stroke-opacity="0.30"/>
<line x1="500.2" y1="135.1" x2="680.8" y2="43.8" stroke="#ffffff" stroke-width="1" stroke-opacity="0.30"/>
<line x1="647.7" y1="307.7" x2="721.6" y2="120.1" stroke="#ffffff" stroke-width="1" stroke-opacity="0.30"/>
<line x1="769.8" y1="350.7" x2="874.0" y2="191.0" stroke="#ffffff" stroke-width="1" stroke-opacity="0.30"/>
<polygon points="831.8,383.4 829.8,389.0 827.0,394.9 823.2,401.0 818.4,407.2 812.8,413.5 806.3,419.8 799.1,426.0 791.2,432.0 782.6,438.0 773.5,443.6 763.8,449.0 753.6,454.3 742.9,459.4 731.8,464.2 720.1,469.0 707.8,473.6 695.3,479.8 682.3,487.0 668.7,495.6 654.3,506.2 639.7,519.6 625.2,535.3 611.3,552.1 598.4,569.0 587.8,585.4 579.8,600.7 573.5,614.7 569.5,627.8 567.0,640.2 564.3,651.5 561.3,662.1 557.8,671.8 554.2,680.8 550.0,688.9 545.6,696.4 540.8,702.8 535.6,708.3 530.3,713.1 524.4,716.6 518.1,719.2 511.6,721.0 504.7,721.7 497.4,721.4 489.7,720.5 481.6,718.6 473.1,716.0 464.2,712.8 454.9,708.7 445.1,704.0 434.8,698.6 423.8,692.5 411.5,686.8 397.6,682.0 382.4,677.1 366.0,672.4 348.4,668.2 330.3,664.5 312.2,661.5 294.5,659.3 277.7,657.9 261.9,657.2 247.1,656.9 233.3,657.3 220.5,658.7 208.3,659.9 196.8,660.7 185.8,661.2 175.4,661.3 165.6,661.0 156.5,660.3 148.0,659.1 140.1,657.5 133.0,655.7 126.8,653.6 121.4,650.9 116.6,648.2 112.9,644.7 109.7,640.9 107.5,636.5 105.9,631.4 104.7,625.8 104.5,619.5 104.7,612.4 105.5,604.8 107.0,596.7 109.1,588.1 111.9,579.2 115.2,569.9 119.2,560.4 123.8,550.6 128.9,540.5 134.7,530.2 141.1,519.4 147.6,507.6 153.1,493.8 158.3,477.9 162.1,458.7 163.4,435.6 162.1,410.4 160.3,385.0 157.0,361.3 151.2,341.6 144.1,325.6 136.5,312.2 128.8,300.6 120.2,290.7 112.4,281.2 105.2,271.8 98.5,262.5 92.5,253.3 87.0,244.1 82.1,235.1 77.9,226.1 74.4,217.4 71.7,208.8 69.7,200.5 68.5,192.5 67.9,185.0 68.6,178.0 70.1,171.4 72.5,165.3 76.3,160.0 80.7,155.0 86.4,150.9 92.9,147.1 100.2,143.8 108.3,141.2 117.1,138.9 126.5,137.1 136.5,135.9 147.0,135.0 157.9,134.7 169.3,134.8 181.1,135.2 193.5,136.0 206.4,137.1 220.1,137.4 234.5,136.7 249.9,135.7 266.2,134.0 283.3,131.4 301.0,128.0 318.8,123.9 336.2,119.1 352.7,113.9 368.0,108.6 382.1,103.3 394.6,97.6 405.5,91.2 415.7,85.6 425.4,80.6 434.6,76.5 443.3,73.3 451.5,70.6 459.2,69.0 466.5,68.1 473.2,67.9 479.4,68.7 485.3,70.3 490.7,72.7 495.9,75.8 500.6,80.0 505.3,85.0 509.8,90.6 514.0,97.3 518.2,104.7 522.1,113.0 526.0,122.0 529.7,132.0 533.2,143.0 536.9,155.3 543.3,168.0 551.7,181.9 562.4,197.2 575.9,213.6 591.8,230.3 608.7,246.4 625.9,260.7 642.6,272.0 658.3,280.9 672.9,287.8 686.5,293.3 699.5,297.7 712.0,301.0 723.9,304.3 735.3,307.8 746.2,311.4 756.6,315.2 766.5,319.2 775.8,323.5 784.7,327.9 793.0,332.5 800.7,337.3 807.6,342.2 813.9,347.2 819.2,352.2 823.8,357.3 827.4,362.4 830.3,367.3 831.6,372.5 832.1,377.9" fill="none" stroke="#8d7350" stroke-width="3"/>
<polygon points="945.7,404.6 940.9,425.3 933.7,444.5 924.7,462.2 914.3,478.5 902.8,493.2 890.5,506.4 877.6,518.4 864.4,529.2 850.8,539.0 837.2,548.0 823.4,556.2 809.7,563.6 796.1,570.6 782.7,577.1 769.5,583.2 756.9,589.2 744.4,593.6 732.6,597.3 721.8,600.3 712.3,602.6 704.4,604.1 698.5,606.3 695.3,610.4 694.5,616.9 694.6,625.5 694.2,635.9 693.0,647.9 690.0,661.0 685.2,674.7 680.0,689.3 674.0,704.3 667.4,719.7 659.4,735.2 650.4,750.7 639.7,765.7 627.4,780.4 613.6,794.1 598.0,806.4 581.1,817.6 563.0,826.8 543.9,834.0 524.4,839.2 504.9,842.5 485.5,843.7 466.6,843.4 448.3,841.8 430.9,838.8 414.2,835.3 398.4,831.0 383.4,826.7 369.4,822.4 356.7,817.5 345.6,812.0 335.5,807.1 326.3,803.1 317.6,800.2 309.2,798.8 300.4,798.5 291.0,799.3 280.8,800.7 269.5,802.6 257.3,804.6 244.0,806.2 229.9,806.7 214.9,807.0 199.4,807.1 183.3,806.7 166.6,805.6 149.4,803.6 131.7,800.5 113.7,796.1 95.6,790.1 77.4,782.2 59.4,772.3 42.0,760.4 25.8,746.0 10.8,729.9 -2.0,711.7 -12.7,692.4 -20.9,672.3 -26.4,651.6 -30.0,631.2 -31.1,611.1 -30.5,591.7 -28.2,573.0 -24.7,555.0 -20.1,537.9 -14.7,521.6 -8.6,506.0 -2.0,491.1 4.9,476.9 11.9,463.3 18.6,450.4 25.5,438.6 33.3,428.8 40.7,420.7 48.0,415.3 54.8,412.5 59.2,410.9 57.6,409.5 51.8,407.6 44.9,403.5 37.5,396.6 29.6,387.7 21.6,377.3 14.4,365.2 6.8,352.5 -0.9,339.2 -8.4,325.4 -15.7,311.0 -22.4,296.0 -28.5,280.3 -33.8,263.8 -38.1,246.7 -41.2,228.8 -42.8,210.3 -42.7,191.2 -40.4,171.7 -36.2,152.0 -29.6,132.8 -20.6,114.3 -9.8,96.8 3.2,81.1 17.3,66.8 32.7,54.6 48.9,44.4 65.4,35.8 82.1,28.9 98.8,23.4 115.3,19.1 131.6,15.8 147.6,13.4 163.3,11.5 178.5,10.2 193.2,9.1 207.4,8.2 220.9,8.2 233.5,8.9 245.2,9.4 256.0,9.6 265.8,9.2 274.8,8.0 283.2,5.3 291.4,1.2 299.9,-4.0 309.0,-10.4 319.0,-17.5 330.5,-24.4 343.6,-30.6 357.7,-36.9 372.7,-43.2 388.7,-49.1 405.6,-54.4 423.7,-58.5 442.6,-61.5 462.4,-62.8 482.7,-62.1 503.3,-59.5 523.8,-54.6 543.7,-47.5 562.7,-38.3 580.5,-27.6 596.7,-15.2 611.3,-1.7 624.4,12.4 635.8,27.2 646.1,42.0 655.0,56.8 663.0,71.3 670.2,85.1 676.9,97.9 680.7,110.3 683.0,121.3 684.3,130.2 684.8,137.0 686.0,141.4 689.1,143.5 694.4,144.2 701.8,145.2 711.1,146.9 721.9,149.4 733.9,152.5 746.7,156.7 759.8,162.1 773.5,167.7 787.5,173.8 801.7,180.3 816.1,187.5 830.5,195.4 844.9,204.1 859.1,213.8 873.1,224.6 886.7,236.7 899.6,250.1 911.8,265.0 922.8,281.5 932.4,299.6 940.0,319.1 945.2,340.0 948.3,361.6 948.4,383.2" fill="none" stroke="#8d7350" stroke-width="3"/>
<circle cx="883.8" cy="393.1" r="3.5" fill="#5fd08a"/>
<circle cx="767.7" cy="544.0" r="3.5" fill="#5fd08a"/>
<circle cx="640.8" cy="661.7" r="3.5" fill="#5fd08a"/>
<circle cx="500.4" cy="770.7" r="3.5" fill="#5fd08a"/>
<circle cx="304.4" cy="751.8" r="3.5" fill="#5fd08a"/>
<circle cx="118.3" cy="722.5" r="3.5" fill="#5fd08a"/>
<circle cx="49.9" cy="559.8" r="3.5" fill="#5fd08a"/>
<circle cx="108.6" cy="382.6" r="3.5" fill="#5fd08a"/>
<circle cx="44.6" cy="213.6" r="3.5" fill="#5fd08a"/>
<circle cx="131.6" cy="108.9" r="3.5" fill="#5fd08a"/>
<circle cx="304.1" cy="34.7" r="3.5" fill="#5fd08a"/>
<circle cx="495.5" cy="37.1" r="3.5" fill="#5fd08a"/>
<circle cx="608.9" cy="155.5" r="3.5" fill="#5fd08a"/>
<circle cx="800.2" cy="221.7" r="3.5" fill="#5fd08a"/>
<circle cx="905.1" cy="332.5" r="4" fill="#e8604c"/><line x1="905.1" y1="332.5" x2="910.1" y2="345.6" stroke="#e8604c" stroke-width="2"/>
<circle cx="862.3" cy="349.0" r="4" fill="#e8604c"/><line x1="862.3" y1="349.0" x2="867.3" y2="362.0" stroke="#e8604c" stroke-width="2"/>
<circle cx="881.4" cy="290.5" r="4" fill="#e8604c"/><line x1="881.4" y1="290.5" x2="890.4" y2="301.2" stroke="#e8604c" stroke-width="2"/>
<circle cx="844.2" cy="321.7" r="4" fill="#e8604c"/><line x1="844.2" y1="321.7" x2="853.2" y2="332.5" stroke="#e8604c" stroke-width="2"/>
<circle cx="848.3" cy="258.1" r="4" fill="#e8604c"/><line x1="848.3" y1="258.1" x2="859.5" y2="266.4" stroke="#e8604c" stroke-width="2"/>
<circle cx="817.8" cy="299.1" r="4" fill="#e8604c"/><line x1="817.8" y1="299.1" x2="829.1" y2="307.4" stroke="#e8604c" stroke-width="2"/>
<circle cx="810.7" cy="233.8" r="4" fill="#e8604c"/><line x1="810.7" y1="233.8" x2="823.1" y2="240.2" stroke="#e8604c" stroke-width="2"/>
<circle cx="786.3" cy="280.8" r="4" fill="#e8604c"/><line x1="786.3" y1="280.8" x2="798.8" y2="287.2" stroke="#e8604c" stroke-width="2"/>
<text x="14" y="26" font-family="monospace" font-size="16" fill="#f4f0e6">Ember Gulch  -  stadium_10  -  1616 studs/lap</text>
</svg>