<svg xmlns="http://www.w3.org/2000/svg" width="900" height="945" viewBox="0 0 900 945">
<rect width="900" height="945" fill="#2b2a33"/>
<path fill="#c9a97a" fill-rule="evenodd" d="M817.8,462.1L815.8,474.9L813.9,487.9L812.0,500.9L810.1,514.0L808.0,527.0L806.0,540.0L804.1,553.0L801.8,565.9L799.5,578.7L797.1,591.4L794.3,603.9L791.3,616.3L788.1,628.6L784.3,640.6L780.3,652.4L775.8,664.1L770.9,675.5L765.6,686.6L759.8,697.5L753.6,708.2L746.9,718.5L740.0,728.7L732.6,738.6L724.4,747.8L716.6,757.4L707.5,765.8L699.0,774.9L689.4,782.7L679.7,790.6L670.1,798.5L659.6,805.3L649.1,812.2L638.4,818.7L627.4,824.8L616.2,830.6L604.8,836.0L593.2,841.0L581.4,845.6L569.4,849.9L557.3,853.7L545.1,857.2L532.8,860.3L520.4,863.1L507.8,865.4L495.3,867.6L482.7,869.2L470.0,870.3L457.3,871.1L444.6,871.6L431.8,871.9L419.2,871.7L406.5,870.9L393.9,869.9L381.3,868.5L368.7,867.1L356.3,864.9L344.0,862.4L331.7,859.6L319.6,856.5L307.6,853.1L295.7,849.5L284.1,845.2L272.6,840.7L261.2,835.9L250.1,830.8L239.1,825.4L228.4,819.7L217.9,813.6L207.7,807.2L197.7,800.6L187.9,793.8L178.6,786.4L169.6,778.8L160.8,770.9L152.1,763.2L144.3,754.5L136.5,745.9L128.9,737.2L122.3,727.8L115.6,718.5L109.5,708.8L104.0,698.8L98.7,688.7L93.8,678.4L89.9,667.7L86.1,657.0L82.9,646.0L80.2,634.8L78.0,623.5L76.1,612.1L75.1,600.4L74.4,588.6L73.9,576.7L74.1,564.7L74.6,552.5L75.4,540.3L76.5,527.9L78.0,515.3L79.4,502.7L81.3,490.0L83.1,477.1L84.9,464.2L86.9,451.2L88.9,438.2L90.9,425.1L92.8,412.1L94.9,399.1L97.0,386.2L99.1,373.3L101.7,360.6L104.0,347.9L107.1,335.5L110.0,323.1L113.7,311.0L117.6,299.1L121.8,287.4L126.5,275.8L131.6,264.6L137.1,253.5L143.1,242.7L149.5,232.2L156.4,222.0L163.4,211.9L171.3,202.4L179.4,193.0L187.7,183.9L196.6,175.3L205.8,167.0L215.0,158.6L225.1,151.2L235.1,143.8L245.5,136.8L256.0,129.9L267.0,123.8L278.1,117.9L289.4,112.3L300.9,107.1L312.6,102.3L324.5,97.9L336.5,93.8L348.6,90.1L360.9,86.7L373.3,83.7L385.7,81.3L398.3,79.1L410.9,77.4L423.6,75.9L436.3,74.7L448.9,74.0L461.7,73.9L474.4,74.0L487.1,74.4L499.7,74.9L512.3,76.2L524.9,77.9L537.4,79.8L549.8,82.0L562.1,84.4L574.2,87.4L586.3,90.8L598.2,94.4L610.0,98.4L621.6,102.6L633.0,107.2L644.3,112.2L655.3,117.4L666.1,123.0L676.7,128.9L687.1,135.1L697.2,141.7L707.0,148.5L716.6,155.6L725.8,163.0L735.0,170.4L743.3,178.7L751.5,187.0L759.9,195.1L766.9,204.3L774.5,213.0L780.8,222.6L787.7,231.8L793.1,241.9L798.6,251.9L803.7,262.0L808.1,272.5L812.0,283.3L815.4,294.1L818.4,305.2L820.8,316.4L822.9,327.8L824.3,339.4L825.2,351.1L825.7,363.0L826.1,374.9L825.4,387.0L825.1,399.2L823.8,411.6L822.8,424.0L821.1,436.6L819.5,449.3ZM996.8,483.5L995.0,499.9L992.6,516.1L989.7,532.2L986.2,548.2L982.4,564.0L978.0,579.8L973.1,595.5L967.9,611.1L962.1,626.7L955.9,642.2L949.3,657.7L942.3,673.0L934.8,688.2L927.2,703.4L918.9,718.4L910.3,733.2L901.3,747.8L891.9,762.2L882.1,776.3L871.9,790.2L861.4,803.8L850.4,817.0L838.9,829.8L827.5,842.6L815.0,854.4L803.0,866.6L789.7,877.4L777.0,888.8L763.5,899.3L749.5,909.0L735.8,919.0L721.5,928.1L707.0,936.8L692.2,945.1L677.3,952.9L662.1,960.3L646.7,967.2L631.2,973.7L615.5,979.7L599.6,985.3L583.7,990.4L567.5,995.1L551.3,999.3L535.0,1003.0L518.5,1006.1L502.0,1009.0L485.4,1011.6L468.8,1013.5L452.1,1015.0L435.3,1015.8L418.5,1016.3L401.7,1016.6L384.8,1016.1L368.0,1015.3L351.2,1013.6L334.4,1011.9L317.6,1009.7L300.9,1006.8L284.3,1003.4L267.7,999.5L251.3,995.0L234.8,990.2L218.6,984.8L202.5,978.8L186.5,972.2L170.8,965.1L155.2,957.4L139.9,949.2L124.8,940.5L110.0,931.1L95.7,921.0L81.4,910.6L67.6,899.6L54.1,888.1L41.5,875.6L28.7,863.1L16.6,849.9L5.3,835.9L-5.9,821.9L-16.2,807.1L-26.0,792.0L-35.5,776.5L-44.0,760.6L-51.8,744.2L-59.4,727.8L-66.1,711.0L-72.2,694.0L-77.6,676.8L-82.4,659.5L-86.5,642.0L-90.2,624.6L-93.3,607.1L-95.5,589.6L-97.5,572.2L-98.8,554.9L-99.5,537.7L-99.9,520.6L-99.7,503.7L-98.9,486.9L-97.8,470.3L-96.2,453.9L-93.9,437.6L-91.3,421.4L-88.2,405.4L-84.5,389.5L-80.3,373.7L-75.8,358.0L-70.7,342.3L-65.0,326.8L-59.3,311.1L-52.7,295.7L-46.1,280.3L-38.7,265.0L-31.2,249.8L-23.2,234.7L-14.8,219.8L-6.0,205.1L3.2,190.6L12.8,176.3L22.8,162.3L33.2,148.6L43.9,135.2L55.3,122.3L66.6,109.3L78.6,97.0L90.9,85.2L103.5,73.5L116.3,62.3L129.9,51.9L143.2,41.3L157.1,31.4L171.2,22.1L185.7,13.3L200.2,4.6L215.1,-3.5L230.2,-11.1L245.4,-18.2L260.9,-24.9L276.5,-31.1L292.3,-36.9L308.2,-42.3L324.3,-47.1L340.5,-51.5L356.7,-55.6L373.1,-59.1L389.6,-62.2L406.2,-64.8L422.8,-66.8L439.5,-68.4L456.2,-69.9L473.0,-70.7L489.8,-71.0L506.6,-70.5L523.4,-70.0L540.3,-69.0L557.1,-67.4L573.9,-65.3L590.6,-62.5L607.3,-59.4L623.9,-55.9L640.4,-51.8L656.9,-47.1L673.2,-41.9L689.4,-36.2L705.4,-29.9L721.2,-23.1L736.9,-15.7L752.3,-7.7L767.5,0.8L782.5,9.8L797.1,19.4L811.5,29.6L825.5,40.4L838.8,52.1L852.3,63.6L865.1,76.0L876.9,89.4L889.2,102.4L900.1,116.8L911.2,130.9L920.8,146.2L930.9,161.2L939.7,177.0L947.9,193.2L955.6,209.6L962.7,226.2L969.1,243.1L974.9,260.2L980.0,277.5L984.4,294.9L988.3,312.3L991.7,329.8L994.4,347.2L996.3,364.7L998.2,382.1L999.0,399.3L999.8,416.5L999.6,433.5L999.3,450.4L998.4,467.0Z"/>
<polygon points="843.0,120.0 853.8,132.0 863.7,144.7 873.4,157.5 882.2,171.0 890.9,184.6 898.8,198.7 906.0,213.2 912.8,227.8 919.0,242.7 962.7,226.2 955.6,209.6 947.9,193.2 939.7,177.0 930.9,161.2 920.8,146.2 911.2,130.9 900.1,116.8 889.2,102.4 876.9,89.4" fill="#6a5334" fill-opacity="0.85"/>
<polygon points="853.1,703.8 845.9,717.0 838.2,730.1 830.1,742.8 865.0,765.3 874.2,751.6 883.0,737.7 891.5,723.5" fill="#8fb0be" fill-opacity="0.85"/>
<polygon points="961.2,226.8 967.6,243.6 973.3,260.7 978.4,277.9 982.8,295.2 986.7,312.6 826.0,339.1 824.5,327.5 822.4,316.1 820.0,304.8 817.0,293.6 813.5,282.7" fill="#b28f5f" fill-opacity="0.85"/>
<line x1="80.1" y1="436.6" x2="-79.3" y2="407.1" stroke="#f2c14e" stroke-width="7" stroke-linecap="round"/>
<line x1="820.9" y1="502.5" x2="980.8" y2="530.6" stroke="#f2c14e" stroke-width="7" stroke-linecap="round"/>
<line x1="782.1" y1="457.8" x2="1032.6" y2="487.8" stroke="#ffffff" stroke-width="4" stroke-dasharray="8 6"/>
<line x1="758.8" y1="616.7" x2="964.2" y2="700.1" stroke="#ffffff" stroke-width="1" stroke-opacity="0.30"/>
<line x1="696.9" y1="738.0" x2="834.7" y2="873.8" stroke="#ffffff" stroke-width="1" stroke-opacity="0.30"/>
<line x1="571.4" y1="820.0" x2="641.2" y2="999.3" stroke="#ffffff" stroke-width="1" stroke-opacity="0.30"/>
<line x1="431.2" y1="843.2" x2="436.0" y2="1044.5" stroke="#ffffff" stroke-width="1" stroke-opacity="0.30"/>
<line x1="283.4" y1="811.9" x2="207.8" y2="1013.6" stroke="#ffffff" stroke-width="1" stroke-opacity="0.30"/>
<line x1="174.2" y1="740.7" x2="19.4" y2="898.1" stroke="#ffffff" stroke-width="1" stroke-opacity="0.30"/>
<line x1="111.8" y1="626.4" x2="-109.2" y2="685.2" stroke="#ffffff" stroke-width="1" stroke-opacity="0.30"/>
<line x1="117.1" y1="493.9" x2="-133.7" y2="466.4" stroke="#ffffff" stroke-width="1" stroke-opacity="0.30"/>
<line x1="139.8" y1="334.7" x2="-68.4" y2="253.4" stroke="#ffffff" stroke-width="1" stroke-opacity="0.30"/>
<line x1="207.1" y1="203.7" x2="71.6" y2="65.4" stroke="#ffffff" stroke-width="1" stroke-opacity="0.30"/>
<line x1="322.9" y1="127.8" x2="250.6" y2="-50.3" stroke="#ffffff" stroke-width="1" stroke-opacity="0.30"/>
<line x1="474.7" y1="102.9" x2="472.7" y2="-99.6" stroke="#ffffff" stroke-width="1" stroke-opacity="0.30"/>
<line x1="611.3" y1="131.5" x2="683.5" y2="-70.8" stroke="#ffffff" stroke-width="1" stroke-opacity="0.30"/>
<line x1="728.8" y1="209.2" x2="887.8" y2="53.8" stroke="#ffffff" stroke-width="1" stroke-opacity="0.30"/>
<line x1="787.1" y1="314.2" x2="1006.2" y2="251.2" stroke="#ffffff" stroke-width="1" stroke-opacity="0.30"/>
<polygon points="817.8,462.1 815.8,474.9 813.9,487.9 812.0,500.9 810.1,514.0 808.0,527.0 806.0,540.0 804.1,553.0 801.8,565.9 799.5,578.7 797.1,591.4 794.3,603.9 791.3,616.3 788.1,628.6 784.3,640.6 780.3,652.4 775.8,664.1 770.9,675.5 765.6,686.6 759.8,697.5 753.6,708.2 746.9,718.5 740.0,728.7 732.6,738.6 724.4,747.8 716.6,757.4 707.5,765.8 699.0,774.9 689.4,782.7 679.7,790.6 670.1,798.5 659.6,805.3 649.1,812.2 638.4,818.7 627.4,824.8 616.2,830.6 604.8,836.0 593.2,841.0 581.4,845.6 569.4,849.9 557.3,853.7 545.1,857.2 532.8,860.3 520.4,863.1 507.8,865.4 495.3,867.6 482.7,869.2 470.0,870.3 457.3,871.1 444.6,871.6 431.8,871.9 419.2,871.7 406.5,870.9 393.9,869.9 381.3,868.5 368.7,867.1 356.3,864.9 344.0,862.4 331.7,859.6 319.6,856.5 307.6,853.1 295.7,849.5 284.1,845.2 272.6,840.7 261.2,835.9 250.1,830.8 239.1,825.4 228.4,819.7 217.9,813.6 207.7,807.2 197.7,800.6 187.9,793.8 178.6,786.4 169.6,778.8 160.8,770.9 152.1,763.2 144.3,754.5 136.5,745.9 128.9,737.2 122.3,727.8 115.6,718.5 109.5,708.8 104.0,698.8 98.7,688.7 93.8,678.4 89.9,667.7 86.1,657.0 82.9,646.0 80.2,634.8 78.0,623.5 76.1,612.1 75.1,600.4 74.4,588.6 73.9,576.7 74.1,564.7 74.6,552.5 75.4,540.3 76.5,527.9 78.0,515.3 79.4,502.7 81.3,490.0 83.1,477.1 84.9,464.2 86.9,451.2 88.9,438.2 90.9,425.1 92.8,412.1 94.9,399.1 97.0,386.2 99.1,373.3 101.7,360.6 104.0,347.9 107.1,335.5 110.0,323.1 113.7,311.0 117.6,299.1 121.8,287.4 126.5,275.8 131.6,264.6 137.1,253.5 143.1,242.7 149.5,232.2 156.4,222.0 163.4,211.9 171.3,202.4 179.4,193.0 187.7,183.9 196.6,175.3 205.8,167.0 215.0,158.6 225.1,151.2 235.1,143.8 245.5,136.8 256.0,129.9 267.0,123.8 278.1,117.9 289.4,112.3 300.9,107.1 312.6,102.3 324.5,97.9 336.5,93.8 348.6,90.1 360.9,86.7 373.3,83.7 385.7,81.3 398.3,79.1 410.9,77.4 423.6,75.9 436.3,74.7 448.9,74.0 461.7,73.9 474.4,74.0 487.1,74.4 499.7,74.9 512.3,76.2 524.9,77.9 537.4,79.8 549.8,82.0 562.1,84.4 574.2,87.4 586.3,90.8 598.2,94.4 610.0,98.4 621.6,102.6 633.0,107.2 644.3,112.2 655.3,117.4 666.1,123.0 676.7,128.9 687.1,135.1 697.2,141.7 707.0,148.5 716.6,155.6 725.8,163.0 735.0,170.4 743.3,178.7 751.5,187.0 759.9,195.1 766.9,204.3 774.5,213.0 780.8,222.6 787.7,231.8 793.1,241.9 798.6,251.9 803.7,262.0 808.1,272.5 812.0,283.3 815.4,294.1 818.4,305.2 820.8,316.4 822.9,327.8 824.3,339.4 825.2,351.1 825.7,363.0 826.1,374.9 825.4,387.0 825.1,399.2 823.8,411.6 822.8,424.0 821.1,436.6 819.5,449.3" fill="none" stroke="#8d7350" stroke-width="3"/>
<polygon points="996.8,483.5 995.0,499.9 992.6,516.1 989.7,532.2 986.2,548.2 982.4,564.0 978.0,579.8 973.1,595.5 967.9,611.1 962.1,626.7 955.9,642.2 949.3,657.7 942.3,673.0 934.8,688.2 927.2,703.4 918.9,718.4 910.3,733.2 901.3,747.8 891.9,762.2 882.1,776.3 871.9,790.2 861.4,803.8 850.4,817.0 838.9,829.8 827.5,842.6 815.0,854.4 803.0,866.6 789.7,877.4 777.0,888.8 763.5,899.3 749.5,909.0 735.8,919.0 721.5,928.1 707.0,936.8 692.2,945.1 677.3,952.9 662.1,960.3 646.7,967.2 631.2,973.7 615.5,979.7 599.6,985.3 583.7,990.4 567.5,995.1 551.3,999.3 535.0,1003.0 518.5,1006.1 502.0,1009.0 485.4,1011.6 468.8,1013.5 452.1,1015.0 435.3,1015.8 418.5,1016.3 401.7,1016.6 384.8,1016.1 368.0,1015.3 351.2,1013.6 334.4,1011.9 317.6,1009.7 300.9,1006.8 284.3,1003.4 267.7,999.5 251.3,995.0 234.8,990.2 218.6,984.8 202.5,978.8 186.5,972.2 170.8,965.1 155.2,957.4 139.9,949.2 124.8,940.5 110.0,931.1 95.7,921.0 81.4,910.6 67.6,899.6 54.1,888.1 41.5,875.6 28.7,863.1 16.6,849.9 5.3,835.9 -5.9,821.9 -16.2,807.1 -26.0,792.0 -35.5,776.5 -44.0,760.6 -51.8,744.2 -59.4,727.8 -66.1,711.0 -72.2,694.0 -77.6,676.8 -82.4,659.5 -86.5,642.0 -90.2,624.6 -93.3,607.1 -95.5,589.6 -97.5,572.2 -98.8,554.9 -99.5,537.7 -99.9,520.6 -99.7,503.7 -98.9,486.9 -97.8,470.3 -96.2,453.9 -93.9,437.6 -91.3,421.4 -88.2,405.4 -84.5,389.5 -80.3,373.7 -75.8,358.0 -70.7,342.3 -65.0,326.8 -59.3,311.1 -52.7,295.7 -46.1,280.3 -38.7,265.0 -31.2,249.8 -23.2,234.7 -14.8,219.8 -6.0,205.1 3.2,190.6 12.8,176.3 22.8,162.3 33.2,148.6 43.9,135.2 55.3,122.3 66.6,109.3 78.6,97.0 90.9,85.2 103.5,73.5 116.3,62.3 129.9,51.9 143.2,41.3 157.1,31.4 171.2,22.1 185.7,13.3 200.2,4.6 215.1,-3.5 230.2,-11.1 245.4,-18.2 260.9,-24.9 276.5,-31.1 292.3,-36.9 308.2,-42.3 324.3,-47.1 340.5,-51.5 356.7,-55.6 373.1,-59.1 389.6,-62.2 406.2,-64.8 422.8,-66.8 439.5,-68.4 456.2,-69.9 473.0,-70.7 489.8,-71.0 506.6,-70.5 523.4,-70.0 540.3,-69.0 557.1,-67.4 573.9,-65.3 590.6,-62.5 607.3,-59.4 623.9,-55.9 640.4,-51.8 656.9,-47.1 673.2,-41.9 689.4,-36.2 705.4,-29.9 721.2,-23.1 736.9,-15.7 752.3,-7.7 767.5,0.8 782.5,9.8 797.1,19.4 811.5,29.6 825.5,40.4 838.8,52.1 852.3,63.6 865.1,76.0 876.9,89.4 889.2,102.4 900.1,116.8 911.2,130.9 920.8,146.2 930.9,161.2 939.7,177.0 947.9,193.2 955.6,209.6 962.7,226.2 969.1,243.1 974.9,260.2 980.0,277.5 984.4,294.9 988.3,312.3 991.7,329.8 994.4,347.2 996.3,364.7 998.2,382.1 999.0,399.3 999.8,416.5 999.6,433.5 999.3,450.4 998.4,467.0" fill="none" stroke="#8d7350" stroke-width="3"/>
<circle cx="936.0" cy="476.3" r="3.5" fill="#5fd08a"/>
<circle cx="833.5" cy="662.2" r="3.5" fill="#5fd08a"/>
<circle cx="718.6" cy="841.0" r="3.5" fill="#5fd08a"/>
<circle cx="537.7" cy="939.2" r="3.5" fill="#5fd08a"/>
<circle cx="335.8" cy="907.9" r="3.5" fill="#5fd08a"/>
<circle cx="143.3" cy="831.6" r="3.5" fill="#5fd08a"/>
<circle cx="-12.5" cy="692.0" r="3.5" fill="#5fd08a"/>
<circle cx="-14.5" cy="479.5" r="3.5" fill="#5fd08a"/>
<circle cx="39.4" cy="263.4" r="3.5" fill="#5fd08a"/>
<circle cx="158.4" cy="87.7" r="3.5" fill="#5fd08a"/>
<circle cx="371.1" cy="12.1" r="3.5" fill="#5fd08a"/>
<circle cx="582.6" cy="-21.7" r="3.5" fill="#5fd08a"/>
<circle cx="788.5" cy="60.1" r="3.5" fill="#5fd08a"/>
<circle cx="932.8" cy="255.2" r="3.5" fill="#5fd08a"/>
<circle cx="945.2" cy="415.0" r="4" fill="#e8604c"/><line x1="945.2" y1="415.0" x2="944.9" y2="429.0" stroke="#e8604c" stroke-width="2"/>
<circle cx="878.4" cy="413.1" r="4" fill="#e8604c"/><line x1="878.4" y1="413.1" x2="878.0" y2="427.1" stroke="#e8604c" stroke-width="2"/>
<circle cx="943.5" cy="367.9" r="4" fill="#e8604c"/><line x1="943.5" y1="367.9" x2="944.4" y2="381.8" stroke="#e8604c" stroke-width="2"/>
<circle cx="878.9" cy="371.7" r="4" fill="#e8604c"/><line x1="878.9" y1="371.7" x2="879.7" y2="385.7" stroke="#e8604c" stroke-width="2"/>
<circle cx="937.5" cy="320.7" r="4" fill="#e8604c"/><line x1="937.5" y1="320.7" x2="939.8" y2="334.5" stroke="#e8604c" stroke-width="2"/>
<circle cx="875.2" cy="331.0" r="4" fill="#e8604c"/><line x1="875.2" y1="331.0" x2="877.4" y2="344.8" stroke="#e8604c" stroke-width="2"/>
<circle cx="926.4" cy="274.2" r="4" fill="#e8604c"/><line x1="926.4" y1="274.2" x2="930.2" y2="287.6" stroke="#e8604c" stroke-width="2"/>
<circle cx="866.9" cy="291.3" r="4" fill="#e8604c"/><line x1="866.9" y1="291.3" x2="870.8" y2="304.7" stroke="#e8604c" stroke-width="2"/>
<text x="14" y="26" font-family="monospace" font-size="16" fill="#f4f0e6">Willow Circuit  -  stadium_06  -  1608 studs/lap</text>
</svg>