<svg xmlns="http://www.w3.org/2000/svg" width="900" height="862" viewBox="0 0 900 862">
<rect width="900" height="862" fill="#2b2a33"/>
<path fill="#c9a97a" fill-rule="evenodd" d="M816.5,412.8L815.5,422.5L814.0,432.3L810.5,441.8L806.0,451.2L800.4,460.4L793.5,469.3L785.8,477.9L777.2,486.3L767.7,494.3L757.3,501.9L746.3,509.2L734.5,516.3L721.9,522.9L708.5,529.3L694.3,535.3L679.2,541.3L665.2,551.8L650.6,563.4L635.5,576.1L620.1,589.7L604.3,603.4L588.3,616.8L572.4,629.7L557.3,642.3L543.4,654.5L531.1,666.6L523.0,680.7L514.8,693.7L506.2,705.8L497.5,717.0L488.3,727.3L478.8,736.9L469.0,745.6L458.7,753.4L448.1,760.2L437.2,766.0L426.0,770.8L414.6,774.6L403.1,777.1L391.6,778.4L380.0,778.5L368.7,777.4L357.5,775.2L346.7,771.5L336.2,766.8L326.2,761.2L316.6,754.6L307.7,746.8L299.1,738.4L291.0,729.2L283.5,719.2L276.4,708.5L269.6,697.2L263.4,685.1L257.3,672.3L251.6,658.9L245.9,644.7L240.2,629.7L232.3,614.9L222.7,600.1L212.8,584.6L202.8,568.8L192.7,552.7L183.0,536.7L173.5,521.0L164.6,505.9L154.3,493.0L143.4,481.6L133.4,470.7L124.1,460.0L115.8,449.5L108.2,439.0L101.6,428.5L96.0,417.9L91.3,407.3L87.6,396.5L85.1,385.6L83.7,374.6L83.5,363.5L84.6,352.4L86.8,341.3L90.2,330.3L94.8,319.4L100.3,308.6L106.8,298.0L114.3,287.4L122.5,277.0L131.5,266.6L141.3,256.4L151.6,246.1L162.4,235.9L173.6,225.5L185.2,215.1L196.9,204.6L208.7,194.0L220.5,183.4L232.2,172.8L243.8,162.4L255.4,152.2L266.9,142.5L278.4,133.2L290.0,124.5L301.7,116.5L313.5,109.2L325.4,102.6L337.5,97.1L349.8,92.3L362.1,88.5L374.6,85.9L387.1,84.0L399.5,83.5L411.9,84.1L424.2,85.5L436.3,88.3L448.1,92.0L459.7,96.7L470.9,102.5L481.8,109.1L492.4,116.6L502.7,125.1L512.8,134.4L522.7,144.5L532.5,155.5L542.4,167.3L552.7,180.0L565.8,190.8L580.0,201.6L594.7,213.0L609.7,224.7L624.7,236.7L639.5,248.5L653.8,260.2L667.8,271.2L681.5,281.1L695.8,288.4L709.4,295.6L722.3,302.8L734.4,310.1L745.8,317.5L756.6,325.0L766.5,332.9L775.8,340.8L784.4,349.0L791.9,357.5L798.8,366.1L804.6,375.0L809.2,384.2L813.1,393.4L815.1,403.1ZM938.6,415.9L936.8,439.3L931.9,462.2L925.5,484.4L916.8,505.6L906.3,525.5L894.5,544.2L881.3,561.5L867.0,577.3L852.0,591.9L836.5,605.2L820.6,617.4L804.4,628.5L788.5,639.0L772.6,648.7L757.3,658.0L742.8,667.0L727.0,671.6L712.1,675.5L698.3,679.4L685.7,683.8L674.9,690.1L665.9,698.7L658.5,709.6L651.7,722.1L644.5,735.6L636.2,749.7L623.7,761.7L610.8,774.5L597.5,787.6L583.5,800.7L569.0,813.8L553.6,826.3L537.3,838.2L520.1,849.3L502.1,859.5L483.2,868.5L463.5,876.1L443.1,882.2L422.1,886.8L400.6,889.8L378.8,890.8L357.0,890.1L335.2,887.3L313.7,883.0L292.7,876.8L272.4,868.8L252.8,859.3L234.1,848.5L216.4,836.5L199.9,823.3L184.2,809.4L169.7,794.7L156.2,779.6L143.5,764.3L131.8,748.9L120.7,733.6L110.1,718.7L100.1,704.4L92.5,689.7L86.2,675.3L79.8,661.6L72.8,648.9L65.0,636.9L56.0,625.4L46.0,614.0L35.1,602.3L25.5,588.5L16.6,573.1L7.4,556.9L-1.7,539.8L-10.6,521.8L-18.9,503.0L-26.4,483.3L-32.8,462.8L-38.0,441.7L-41.6,420.0L-43.7,397.9L-44.1,375.7L-42.7,353.5L-39.7,331.6L-35.0,310.1L-28.8,289.2L-21.2,269.1L-12.4,249.8L-2.5,231.5L8.2,214.2L19.6,197.7L31.6,182.2L43.9,167.5L56.4,153.5L69.2,140.3L82.1,127.6L95.1,115.5L108.2,103.9L121.6,92.6L135.2,81.7L149.1,71.0L163.4,60.6L178.2,50.3L193.4,40.3L209.2,30.5L225.6,21.0L242.5,12.0L260.0,3.5L278.1,-4.2L296.8,-11.3L316.1,-17.3L335.9,-22.3L356.0,-26.2L376.6,-28.7L397.4,-30.0L418.3,-30.0L439.1,-28.3L459.9,-25.6L480.4,-21.2L500.5,-15.7L520.2,-9.0L539.2,-1.2L557.7,7.6L575.5,17.0L592.6,26.9L609.0,37.2L624.7,47.6L639.9,57.7L654.3,67.4L665.9,78.9L676.6,90.1L687.4,100.3L698.4,109.3L710.2,117.2L722.8,124.2L736.4,130.8L750.7,137.3L765.3,144.9L779.3,155.1L793.9,165.7L808.7,177.0L823.8,188.9L838.8,201.8L853.5,215.7L867.9,230.6L881.6,246.8L894.3,264.3L906.1,282.9L916.3,302.8L924.9,324.0L931.8,346.0L936.1,369.0L938.9,392.3Z"/>
<polygon points="890.0,338.8 896.2,357.1 900.5,376.1 903.0,395.4 903.2,415.0 901.6,434.4 897.7,453.5 892.2,472.1 884.7,489.8 875.6,506.6 906.3,525.5 916.8,505.6 925.5,484.4 931.9,462.2 936.8,439.3 938.6,415.9 938.9,392.3 936.1,369.0 931.8,346.0 924.9,324.0" fill="#6a5334" fill-opacity="0.85"/>
<polygon points="882.2,321.2 890.0,338.8 896.2,357.1 900.5,376.1 903.0,395.4 903.2,415.0 901.6,434.4 897.7,453.5 892.2,472.1 884.7,489.8 916.8,505.6 925.5,484.4 931.9,462.2 936.8,439.3 938.6,415.9 938.9,392.3 936.1,369.0 931.8,346.0 924.9,324.0 916.3,302.8" fill="#6a5334" fill-opacity="0.85"/>
<polygon points="446.3,39.9 461.8,43.8 477.0,48.9 491.8,55.1 477.8,86.9 465.4,80.9 452.6,76.1 439.6,72.4" fill="#8fb0be" fill-opacity="0.85"/>
<polygon points="17.0,427.1 13.3,410.0 11.0,392.7 10.2,375.2 -26.2,375.5 -25.7,396.2 -23.5,416.7 -19.9,436.9" fill="#8fb0be" fill-opacity="0.85"/>
<polygon points="930.6,346.4 934.9,369.2 937.7,392.4 937.4,415.8 935.6,439.1 930.8,461.9 815.2,432.6 816.8,422.7 817.7,412.8 816.3,403.0 814.4,393.2 810.5,383.8" fill="#b28f5f" fill-opacity="0.85"/>
<line x1="682.4" y1="547.6" x2="739.6" y2="660.8" stroke="#f2c14e" stroke-width="7" stroke-linecap="round"/>
<line x1="792.0" y1="412.2" x2="963.0" y2="416.5" stroke="#ffffff" stroke-width="4" stroke-dasharray="8 6"/>
<line x1="731.4" y1="487.6" x2="835.4" y2="639.0" stroke="#ffffff" stroke-width="1" stroke-opacity="0.30"/>
<line x1="590.2" y1="586.1" x2="689.0" y2="707.4" stroke="#ffffff" stroke-width="1" stroke-opacity="0.30"/>
<line x1="463.9" y1="719.0" x2="568.5" y2="844.2" stroke="#ffffff" stroke-width="1" stroke-opacity="0.30"/>
<line x1="361.9" y1="752.8" x2="330.8" y2="909.7" stroke="#ffffff" stroke-width="1" stroke-opacity="0.30"/>
<line x1="287.3" y1="669.2" x2="119.6" y2="780.2" stroke="#ffffff" stroke-width="1" stroke-opacity="0.30"/>
<line x1="208.3" y1="518.9" x2="30.6" y2="643.1" stroke="#ffffff" stroke-width="1" stroke-opacity="0.30"/>
<line x1="117.1" y1="400.4" x2="-63.8" y2="448.6" stroke="#ffffff" stroke-width="1" stroke-opacity="0.30"/>
<line x1="135.5" y1="302.1" x2="-13.0" y2="199.5" stroke="#ffffff" stroke-width="1" stroke-opacity="0.30"/>
<line x1="237.5" y1="203.7" x2="118.1" y2="61.3" stroke="#ffffff" stroke-width="1" stroke-opacity="0.30"/>
<line x1="356.5" y1="114.2" x2="309.4" y2="-39.2" stroke="#ffffff" stroke-width="1" stroke-opacity="0.30"/>
<line x1="470.3" y1="131.2" x2="550.7" y2="-23.3" stroke="#ffffff" stroke-width="1" stroke-opacity="0.30"/>
<line x1="592.0" y1="247.8" x2="716.1" y2="86.2" stroke="#ffffff" stroke-width="1" stroke-opacity="0.30"/>
<line x1="727.2" y1="340.7" x2="857.4" y2="178.7" stroke="#ffffff" stroke-width="1" stroke-opacity="0.30"/>
<polygon points="816.5,412.8 815.5,422.5 814.0,432.3 810.5,441.8 806.0,451.2 800.4,460.4 793.5,469.3 785.8,477.9 777.2,486.3 767.7,494.3 757.3,501.9 746.3,509.2 734.5,516.3 721.9,522.9 708.5,529.3 694.3,535.3 679.2,541.3 665.2,551.8 650.6,563.4 635.5,576.1 620.1,589.7 604.3,603.4 588.3,616.8 572.4,629.7 557.3,642.3 543.4,654.5 531.1,666.6 523.0,680.7 514.8,693.7 506.2,705.8 497.5,717.0 488.3,727.3 478.8,736.9 469.0,745.6 458.7,753.4 448.1,760.2 437.2,766.0 426.0,770.8 414.6,774.6 403.1,777.1 391.6,778.4 380.0,778.5 368.7,777.4 357.5,775.2 346.7,771.5 336.2,766.8 326.2,761.2 316.6,754.6 307.7,746.8 299.1,738.4 291.0,729.2 283.5,719.2 276.4,708.5 269.6,697.2 263.4,685.1 257.3,672.3 251.6,658.9 245.9,644.7 240.2,629.7 232.3,614.9 222.7,600.1 212.8,584.6 202.8,568.8 192.7,552.7 183.0,536.7 173.5,521.0 164.6,505.9 154.3,493.0 143.4,481.6 133.4,470.7 124.1,460.0 115.8,449.5 108.2,439.0 101.6,428.5 96.0,417.9 91.3,407.3 87.6,396.5 85.1,385.6 83.7,374.6 83.5,363.5 84.6,352.4 86.8,341.3 90.2,330.3 94.8,319.4 100.3,308.6 106.8,298.0 114.3,287.4 122.5,277.0 131.5,266.6 141.3,256.4 151.6,246.1 162.4,235.9 173.6,225.5 185.2,215.1 196.9,204.6 208.7,194.0 220.5,183.4 232.2,172.8 243.8,162.4 255.4,152.2 266.9,142.5 278.4,133.2 290.0,124.5 301.7,116.5 313.5,109.2 325.4,102.6 337.5,97.1 349.8,92.3 362.1,88.5 374.6,85.9 387.1,84.0 399.5,83.5 411.9,84.1 424.2,85.5 436.3,88.3 448.1,92.0 459.7,96.7 470.9,102.5 481.8,109.1 492.4,116.6 502.7,125.1 512.8,134.4 522.7,144.5 532.5,155.5 542.4,167.3 552.7,180.0 565.8,190.8 580.0,201.6 594.7,213.0 609.7,224.7 624.7,236.7 639.5,248.5 653.8,260.2 667.8,271.2 681.5,281.1 695.8,288.4 709.4,295.6 722.3,302.8 734.4,310.1 745.8,317.5 756.6,325.0 766.5,332.9 775.8,340.8 784.4,349.0 791.9,357.5 798.8,366.1 804.6,375.0 809.2,384.2 813.1,393.4 815.1,403.1" fill="none" stroke="#8d7350" stroke-width="3"/>
<polygon points="938.6,415.9 936.8,439.3 931.9,462.2 925.5,484.4 916.8,505.6 906.3,525.5 894.5,544.2 881.3,561.5 867.0,577.3 852.0,591.9 836.5,605.2 820.6,617.4 804.4,628.5 788.5,639.0 772.6,648.7 757.3,658.0 742.8,667.0 727.0,671.6 712.1,675.5 698.3,679.4 685.7,683.8 674.9,690.1 665.9,698.7 658.5,709.6 651.7,722.1 644.5,735.6 636.2,749.7 623.7,761.7 610.8,774.5 597.5,787.6 583.5,800.7 569.0,813.8 553.6,826.3 537.3,838.2 520.1,849.3 502.1,859.5 483.2,868.5 463.5,876.1 443.1,882.2 422.1,886.8 400.6,889.8 378.8,890.8 357.0,890.1 335.2,887.3 313.7,883.0 292.7,876.8 272.4,868.8 252.8,859.3 234.1,848.5 216.4,836.5 199.9,823.3 184.2,809.4 169.7,794.7 156.2,779.6 143.5,764.3 131.8,748.9 120.7,733.6 110.1,718.7 100.1,704.4 92.5,689.7 86.2,675.3 79.8,661.6 72.8,648.9 65.0,636.9 56.0,625.4 46.0,614.0 35.1,602.3 25.5,588.5 16.6,573.1 7.4,556.9 -1.7,539.8 -10.6,521.8 -18.9,503.0 -26.4,483.3 -32.8,462.8 -38.0,441.7 -41.6,420.0 -43.7,397.9 -44.1,375.7 -42.7,353.5 -39.7,331.6 -35.0,310.1 -28.8,289.2 -21.2,269.1 -12.4,249.8 -2.5,231.5 8.2,214.2 19.6,197.7 31.6,182.2 43.9,167.5 56.4,153.5 69.2,140.3 82.1,127.6 95.1,115.5 108.2,103.9 121.6,92.6 135.2,81.7 149.1,71.0 163.4,60.6 178.2,50.3 193.4,40.3 209.2,30.5 225.6,21.0 242.5,12.0 260.0,3.5 278.1,-4.2 296.8,-11.3 316.1,-17.3 335.9,-22.3 356.0,-26.2 376.6,-28.7 397.4,-30.0 418.3,-30.0 439.1,-28.3 459.9,-25.6 480.4,-21.2 500.5,-15.7 520.2,-9.0 539.2,-1.2 557.7,7.6 575.5,17.0 592.6,26.9 609.0,37.2 624.7,47.6 639.9,57.7 654.3,67.4 665.9,78.9 676.6,90.1 687.4,100.3 698.4,109.3 710.2,117.2 722.8,124.2 736.4,130.8 750.7,137.3 765.3,144.9 779.3,155.1 793.9,165.7 808.7,177.0 823.8,188.9 838.8,201.8 853.5,215.7 867.9,230.6 881.6,246.8 894.3,264.3 906.1,282.9 916.3,302.8 924.9,324.0 931.8,346.0 936.1,369.0 938.9,392.3" fill="none" stroke="#8d7350" stroke-width="3"/>
<circle cx="855.1" cy="413.8" r="3.5" fill="#5fd08a"/>
<circle cx="793.4" cy="577.9" r="3.5" fill="#5fd08a"/>
<circle cx="647.2" cy="656.1" r="3.5" fill="#5fd08a"/>
<circle cx="516.8" cy="782.3" r="3.5" fill="#5fd08a"/>
<circle cx="342.7" cy="849.8" r="3.5" fill="#5fd08a"/>
<circle cx="172.1" cy="745.4" r="3.5" fill="#5fd08a"/>
<circle cx="97.2" cy="596.6" r="3.5" fill="#5fd08a"/>
<circle cx="48.5" cy="418.7" r="3.5" fill="#5fd08a"/>
<circle cx="35.1" cy="232.7" r="3.5" fill="#5fd08a"/>
<circle cx="157.6" cy="108.5" r="3.5" fill="#5fd08a"/>
<circle cx="324.9" cy="11.3" r="3.5" fill="#5fd08a"/>
<circle cx="518.1" cy="39.4" r="3.5" fill="#5fd08a"/>
<circle cx="634.0" cy="193.2" r="3.5" fill="#5fd08a"/>
<circle cx="785.5" cy="268.1" r="3.5" fill="#5fd08a"/>
<circle cx="887.6" cy="339.8" r="4" fill="#e8604c"/><line x1="887.6" y1="339.8" x2="893.1" y2="352.7" stroke="#e8604c" stroke-width="2"/>
<circle cx="841.9" cy="359.2" r="4" fill="#e8604c"/><line x1="841.9" y1="359.2" x2="847.4" y2="372.0" stroke="#e8604c" stroke-width="2"/>
<circle cx="860.2" cy="290.5" r="4" fill="#e8604c"/><line x1="860.2" y1="290.5" x2="868.8" y2="301.6" stroke="#e8604c" stroke-width="2"/>
<circle cx="818.4" cy="322.7" r="4" fill="#e8604c"/><line x1="818.4" y1="322.7" x2="827.0" y2="333.8" stroke="#e8604c" stroke-width="2"/>
<circle cx="823.5" cy="249.6" r="4" fill="#e8604c"/><line x1="823.5" y1="249.6" x2="833.9" y2="258.9" stroke="#e8604c" stroke-width="2"/>
<circle cx="786.6" cy="291.1" r="4" fill="#e8604c"/><line x1="786.6" y1="291.1" x2="797.1" y2="300.4" stroke="#e8604c" stroke-width="2"/>
<circle cx="781.9" cy="216.0" r="4" fill="#e8604c"/><line x1="781.9" y1="216.0" x2="793.5" y2="223.9" stroke="#e8604c" stroke-width="2"/>
<circle cx="749.1" cy="263.8" r="4" fill="#e8604c"/><line x1="749.1" y1="263.8" x2="760.6" y2="271.7" stroke="#e8604c" stroke-width="2"/>
<text x="14" y="26" font-family="monospace" font-size="16" fill="#f4f0e6">Rust Stadium  -  stadium_24  -  1200 studs/lap</text>
</svg>